# xmcd
#
# Track frame offsets: 
#        183
#        11433
#        21260
#        30493
#        42523
#        53623
#        63593
#        73118
#        84410
#        94653
#        106860
#        115450
#        124818
#        139128
#        150068
#        163040
#        173700
#        184888
#        194858
#        206068
#
# Disc length: 2900 seconds
#
# Revision: 1
# Processed by: cddbd v1.5.2PL0 Copyright (c) Steve Scherf et al.
# Submitted via: ExactAudioCopy v0.99pb3
#
DISCID=130b5214
DTITLE=Katie Webster - Katie Webster
DYEAR=1989
DGENRE=Blues
TTITLE0=No Bread No Meat
TTITLE1=I Want You To Love Me
TTITLE2=Baby Come On
TTITLE3=I Wanna Know
TTITLE4=Glory Of Love
TTITLE5=The Katie Lee
TTITLE6=Hoo Wee Sweet Daddy
TTITLE7=Hoo Wee Sweet Daddy
TTITLE8=I Feel So Low
TTITLE9=Goodbye Baby Im Still Leaving You Part 1
TTITLE10=Goodbye Baby Im Still Leaving You Part 2
TTITLE11=Don't You Know
TTITLE12=Mama Don't Allow
TTITLE13=Close To My Heart
TTITLE14=Hey Mr Love
TTITLE15=Open Arms
TTITLE16=Sea Of Love
TTITLE17=I Feel So Low
TTITLE18=Sunny Side Of Love
TTITLE19=Baby Baby
EXTD=
EXTT0=
EXTT1=
EXTT2=
EXTT3=
EXTT4=
EXTT5=
EXTT6=
EXTT7=
EXTT8=
EXTT9=
EXTT10=
EXTT11=
EXTT12=
EXTT13=
EXTT14=
EXTT15=
EXTT16=
EXTT17=
EXTT18=
EXTT19=
PLAYORDER=
